<mxfile host="Electron" modified="2023-04-25T11:15:25.799Z" agent="Mozilla/5.0 (Windows NT 10.0; Win64; x64) AppleWebKit/537.36 (KHTML, like Gecko) draw.io/21.2.1 Chrome/112.0.5615.87 Electron/24.1.2 Safari/537.36" etag="701KdINEkZv8tpaMZ9uC" version="21.2.1" type="device">
  <diagram id="asrPZMm98rYkqawTgu1p" name="Page-1">
    <mxGraphModel dx="1418" dy="868" grid="1" gridSize="10" guides="1" tooltips="1" connect="1" arrows="1" fold="1" page="1" pageScale="1" pageWidth="1080" pageHeight="840" background="none" math="0" shadow="0">
      <root>
        <mxCell id="0" />
        <mxCell id="1" parent="0" />
        <mxCell id="ZRe5EipwopZjVvHXA0qT-22" value="Married" style="endArrow=open;startArrow=open;html=1;shadow=0;strokeColor=#7E7E7E;strokeWidth=1;fontFamily=CMU Sans Serif;fontSize=24;fontColor=#4b4b4b;entryX=0.5;entryY=1;entryDx=0;entryDy=0;exitX=0.5;exitY=0;exitDx=0;exitDy=0;startFill=0;endFill=0;edgeStyle=orthogonalEdgeStyle;spacingLeft=0;spacingBottom=0;spacingRight=0;verticalAlign=middle;" parent="1" source="ZRe5EipwopZjVvHXA0qT-9" target="ZRe5EipwopZjVvHXA0qT-1" edge="1">
          <mxGeometry width="50" height="50" relative="1" as="geometry">
            <mxPoint x="270" y="230" as="sourcePoint" />
            <mxPoint x="320" y="180" as="targetPoint" />
          </mxGeometry>
        </mxCell>
        <mxCell id="ZRe5EipwopZjVvHXA0qT-12" value="&lt;b style=&quot;font-size: 24px;&quot;&gt;Mayme&lt;/b&gt;&lt;br style=&quot;font-size: 24px;&quot;&gt;African American, 30&lt;br style=&quot;font-size: 24px;&quot;&gt;Prostitute" style="whiteSpace=wrap;html=1;fontFamily=CMU Sans Serif;fontColor=#4b4b4b;strokeColor=#7e7e7e;rounded=1;verticalAlign=middle;fontSize=24;" parent="1" vertex="1">
          <mxGeometry x="20" y="660" width="240" height="160" as="geometry" />
        </mxCell>
        <mxCell id="ZRe5EipwopZjVvHXA0qT-31" value="&lt;font data-font-src=&quot;https://fontlibrary.org/assets/fonts/cmu-sans-serif/0da0d92e6bacf5e091c1ae85c4da581d/1b24573c1e6cf956df63c20903efe11d/CMUSansSerifMedium.ttf&quot; style=&quot;font-size: 24px&quot;&gt;&lt;b style=&quot;font-size: 24px&quot;&gt;Mr. Charles&lt;br&gt;&lt;/b&gt;Fat and gay man&lt;br style=&quot;font-size: 24px&quot;&gt;&lt;/font&gt;" style="whiteSpace=wrap;html=1;fontFamily=CMU Sans Serif;strokeColor=#7e7e7e;fontColor=#4b4b4b;fontSize=24;rounded=1;verticalAlign=middle;" parent="1" vertex="1">
          <mxGeometry x="420" y="660" width="240" height="160" as="geometry" />
        </mxCell>
        <mxCell id="ZRe5EipwopZjVvHXA0qT-17" value="&lt;font style=&quot;font-size: 24px;&quot;&gt;Good friends&lt;/font&gt;" style="edgeStyle=orthogonalEdgeStyle;orthogonalLoop=1;jettySize=auto;html=1;shadow=0;startArrow=open;startFill=0;endArrow=open;endFill=0;fontFamily=CMU Sans Serif;fontColor=#4b4b4b;fontSize=24;strokeColor=#7E7E7E;entryX=0.5;entryY=1;entryDx=0;entryDy=0;exitX=0.5;exitY=0;exitDx=0;exitDy=0;verticalAlign=middle;" parent="1" source="ZRe5EipwopZjVvHXA0qT-12" target="ZRe5EipwopZjVvHXA0qT-1" edge="1">
          <mxGeometry relative="1" as="geometry">
            <mxPoint x="150" y="380" as="sourcePoint" />
            <mxPoint x="260" y="280" as="targetPoint" />
          </mxGeometry>
        </mxCell>
        <mxCell id="ZRe5EipwopZjVvHXA0qT-9" value="&lt;b style=&quot;font-size: 24px;&quot;&gt;George&lt;/b&gt;&lt;br style=&quot;font-size: 24px;&quot;&gt;Barbadian immigrant, 30’s&lt;br style=&quot;font-size: 24px;&quot;&gt;Panama canal worker" style="whiteSpace=wrap;html=1;fontFamily=CMU Sans Serif;fontColor=#4b4b4b;strokeColor=#7e7e7e;rounded=1;verticalAlign=middle;fontSize=24;" parent="1" vertex="1">
          <mxGeometry x="820" y="660" width="240" height="160" as="geometry" />
        </mxCell>
        <mxCell id="ZRe5EipwopZjVvHXA0qT-1" value="&lt;font data-font-src=&quot;https://fontlibrary.org/assets/fonts/cmu-sans-serif/0da0d92e6bacf5e091c1ae85c4da581d/1b24573c1e6cf956df63c20903efe11d/CMUSansSerifMedium.ttf&quot; style=&quot;font-size: 24px;&quot;&gt;&lt;b style=&quot;font-size: 24px;&quot;&gt;Esther&lt;/b&gt;&lt;br style=&quot;font-size: 24px;&quot;&gt;African American, 35&lt;br style=&quot;font-size: 24px;&quot;&gt;Seamstress&lt;br style=&quot;font-size: 24px;&quot;&gt;&lt;/font&gt;" style="whiteSpace=wrap;html=1;fontFamily=CMU Sans Serif;strokeColor=#7e7e7e;fontColor=#4b4b4b;fontSize=24;rounded=1;verticalAlign=middle;" parent="1" vertex="1">
          <mxGeometry x="420" y="340" width="240" height="160" as="geometry" />
        </mxCell>
        <mxCell id="ZRe5EipwopZjVvHXA0qT-7" value="&lt;b style=&quot;font-size: 24px;&quot;&gt;Mr. Marks&lt;/b&gt;&lt;br style=&quot;font-size: 24px;&quot;&gt;Romanian Orthodox Jewish immigrant, 30’s&lt;br style=&quot;font-size: 24px;&quot;&gt;Fabric seller" style="whiteSpace=wrap;html=1;fontFamily=CMU Sans Serif;fontColor=#4b4b4b;strokeColor=#7e7e7e;rounded=1;verticalAlign=middle;fontSize=24;" parent="1" vertex="1">
          <mxGeometry x="420" y="20" width="240" height="160" as="geometry" />
        </mxCell>
        <mxCell id="ZRe5EipwopZjVvHXA0qT-8" value="&lt;span style=&quot;color: rgb(75 , 75 , 75) ; font-family: &amp;#34;cmu sans serif&amp;#34; ; font-size: 24px ; font-style: normal ; font-weight: 400 ; letter-spacing: normal ; text-align: center ; text-indent: 0px ; text-transform: none ; word-spacing: 0px ; background-color: rgb(255 , 255 , 255) ; display: inline ; float: none&quot;&gt;In love / no PDA&lt;/span&gt;" style="edgeStyle=orthogonalEdgeStyle;orthogonalLoop=1;jettySize=auto;html=1;shadow=0;startArrow=open;startFill=0;endArrow=open;endFill=0;fontFamily=CMU Sans Serif;fontColor=#4b4b4b;fontSize=24;strokeColor=#7E7E7E;verticalAlign=middle;" parent="1" source="ZRe5EipwopZjVvHXA0qT-1" target="ZRe5EipwopZjVvHXA0qT-7" edge="1">
          <mxGeometry x="20" y="20" as="geometry" />
        </mxCell>
        <mxCell id="ZRe5EipwopZjVvHXA0qT-23" value="&lt;b style=&quot;font-size: 24px;&quot;&gt;Mrs. Dickson&lt;/b&gt;&lt;br style=&quot;font-size: 24px;&quot;&gt;African American, 50’s" style="whiteSpace=wrap;html=1;fontFamily=CMU Sans Serif;fontColor=#4b4b4b;strokeColor=#7e7e7e;rounded=1;verticalAlign=middle;fontSize=24;" parent="1" vertex="1">
          <mxGeometry x="820" y="340" width="240" height="160" as="geometry" />
        </mxCell>
        <mxCell id="ZRe5EipwopZjVvHXA0qT-24" value="Friends" style="edgeStyle=orthogonalEdgeStyle;jumpSize=1;orthogonalLoop=1;jettySize=auto;html=1;shadow=0;startArrow=open;startFill=0;endArrow=open;endFill=0;strokeColor=#7E7E7E;strokeWidth=1;fontFamily=CMU Sans Serif;fontSize=24;fontColor=#4b4b4b;verticalAlign=middle;" parent="1" source="ZRe5EipwopZjVvHXA0qT-1" target="ZRe5EipwopZjVvHXA0qT-23" edge="1">
          <mxGeometry x="20" y="60" as="geometry" />
        </mxCell>
        <mxCell id="ZRe5EipwopZjVvHXA0qT-25" value="&lt;b style=&quot;font-size: 24px;&quot;&gt;Mr. Dickson&lt;/b&gt;&lt;br style=&quot;font-size: 24px;&quot;&gt;Drug user" style="whiteSpace=wrap;html=1;fontFamily=CMU Sans Serif;fontColor=#4b4b4b;strokeColor=#7e7e7e;rounded=1;verticalAlign=middle;fontSize=24;" parent="1" vertex="1">
          <mxGeometry x="820" y="20" width="240" height="160" as="geometry" />
        </mxCell>
        <mxCell id="ZRe5EipwopZjVvHXA0qT-26" value="Married" style="edgeStyle=orthogonalEdgeStyle;jumpSize=1;orthogonalLoop=1;jettySize=auto;html=1;shadow=0;startArrow=open;startFill=0;endArrow=open;endFill=0;strokeColor=#7E7E7E;strokeWidth=1;fontFamily=CMU Sans Serif;fontSize=24;fontColor=#4b4b4b;verticalAlign=middle;" parent="1" source="ZRe5EipwopZjVvHXA0qT-23" target="ZRe5EipwopZjVvHXA0qT-25" edge="1">
          <mxGeometry x="20" y="20" as="geometry" />
        </mxCell>
        <mxCell id="ZRe5EipwopZjVvHXA0qT-27" value="&lt;b style=&quot;font-size: 24px;&quot;&gt;Mrs. Van Buren&lt;/b&gt;&lt;br style=&quot;font-size: 24px;&quot;&gt;White, American, 30’s" style="whiteSpace=wrap;html=1;fontFamily=CMU Sans Serif;fontColor=#4b4b4b;strokeColor=#7e7e7e;rounded=1;verticalAlign=middle;fontSize=24;" parent="1" vertex="1">
          <mxGeometry x="20" y="340" width="240" height="160" as="geometry" />
        </mxCell>
        <mxCell id="ZRe5EipwopZjVvHXA0qT-28" value="Client" style="edgeStyle=orthogonalEdgeStyle;jumpSize=1;orthogonalLoop=1;jettySize=auto;html=1;shadow=0;startArrow=none;startFill=0;endArrow=open;endFill=0;strokeColor=#7E7E7E;strokeWidth=1;fontFamily=CMU Sans Serif;fontSize=24;fontColor=#4b4b4b;verticalAlign=middle;" parent="1" source="ZRe5EipwopZjVvHXA0qT-27" target="ZRe5EipwopZjVvHXA0qT-1" edge="1">
          <mxGeometry x="20" y="60" as="geometry" />
        </mxCell>
        <mxCell id="ZRe5EipwopZjVvHXA0qT-29" value="&lt;b style=&quot;font-size: 24px;&quot;&gt;Mr. Van Buren&lt;/b&gt;" style="whiteSpace=wrap;html=1;fontFamily=CMU Sans Serif;fontColor=#4b4b4b;strokeColor=#7e7e7e;rounded=1;verticalAlign=middle;fontSize=24;" parent="1" vertex="1">
          <mxGeometry x="20" y="20" width="240" height="160" as="geometry" />
        </mxCell>
        <mxCell id="ZRe5EipwopZjVvHXA0qT-30" value="Married" style="edgeStyle=orthogonalEdgeStyle;jumpSize=1;orthogonalLoop=1;jettySize=auto;html=1;shadow=0;startArrow=open;startFill=0;endArrow=open;endFill=0;strokeColor=#7E7E7E;strokeWidth=1;fontFamily=CMU Sans Serif;fontSize=24;fontColor=#4b4b4b;verticalAlign=middle;" parent="1" source="ZRe5EipwopZjVvHXA0qT-27" target="ZRe5EipwopZjVvHXA0qT-29" edge="1">
          <mxGeometry x="20" y="20" as="geometry" />
        </mxCell>
      </root>
    </mxGraphModel>
  </diagram>
</mxfile>
